# xmcd
#
# Track frame offsets: 
#        150
#        26300
#        50120
#        73300
#        101960
#        140557
#        162315
#        188300
#        214827
#        243830
#        266135
#        297525
#        339205
#
# Disc length: 4739 seconds
#
# Revision: 24
# Processed by: cddbd v1.5.2PL0 Copyright (c) Steve Scherf et al.
# Submitted via: ExactAudioCopyFreeDBPlugin 1.0
#
DISCID=c912810d
DTITLE=MISIA - GREATEST HITS
DYEAR=2002
DGENRE=リズム＆ブルース
TTITLE0=つつみ込むように・・・
TTITLE1=陽のあたる場所
TTITLE2=キスして抱きしめて
TTITLE3=INTO THE LIGHT
TTITLE4=THE GLORY DAY
TTITLE5=BELIEVE
TTITLE6=忘れない日々
TTITLE7=sweetness
TTITLE8=It's just a love
TTITLE9=Escape
TTITLE10=Everything
TTITLE11=果てなく続くストーリー　（Live version）
TTITLE12=melon
EXTD=YEAR: 2002
EXTT0=
EXTT1=
EXTT2=
EXTT3=
EXTT4=
EXTT5=
EXTT6=
EXTT7=
EXTT8=
EXTT9=
EXTT10=
EXTT11=
EXTT12=
PLAYORDER=
